<svg width="30" height="31" viewBox="0 0 30 31" fill="none" xmlns="http://www.w3.org/2000/svg">
<g filter="url(#filter0_d_501_142)">
<path d="M18.0006 22.7498H12.0006C10.6806 22.7498 9.58063 22.6198 8.65063 22.3398C8.31063 22.2398 8.09063 21.9098 8.11063 21.5598C8.36063 18.5698 11.3906 16.2197 15.0006 16.2197C18.6106 16.2197 21.6306 18.5598 21.8906 21.5598C21.9206 21.9198 21.7006 22.2398 21.3506 22.3398C20.4206 22.6198 19.3206 22.7498 18.0006 22.7498ZM9.72063 21.0598C10.3806 21.1898 11.1306 21.2498 12.0006 21.2498H18.0006C18.8706 21.2498 19.6206 21.1898 20.2806 21.0598C19.7506 19.1398 17.5606 17.7197 15.0006 17.7197C12.4406 17.7197 10.2506 19.1398 9.72063 21.0598Z" fill="white"/>
<path d="M18 2H12C7 2 5 4 5 9V15C5 18.78 6.14 20.85 8.86 21.62C9.08 19.02 11.75 16.97 15 16.97C18.25 16.97 20.92 19.02 21.14 21.62C23.86 20.85 25 18.78 25 15V9C25 4 23 2 18 2ZM15 14.17C13.02 14.17 11.42 12.56 11.42 10.58C11.42 8.60002 13.02 7 15 7C16.98 7 18.58 8.60002 18.58 10.58C18.58 12.56 16.98 14.17 15 14.17Z" stroke="white" stroke-width="1.5" stroke-linecap="round" stroke-linejoin="round"/>
<path d="M14.9999 14.92C12.6099 14.92 10.6699 12.97 10.6699 10.58C10.6699 8.19002 12.6099 6.25 14.9999 6.25C17.3899 6.25 19.3299 8.19002 19.3299 10.58C19.3299 12.97 17.3899 14.92 14.9999 14.92ZM14.9999 7.75C13.4399 7.75 12.1699 9.02002 12.1699 10.58C12.1699 12.15 13.4399 13.42 14.9999 13.42C16.5599 13.42 17.8299 12.15 17.8299 10.58C17.8299 9.02002 16.5599 7.75 14.9999 7.75Z" fill="white"/>
</g>
<defs>
<filter id="filter0_d_501_142" x="-1" y="0" width="32" height="32" filterUnits="userSpaceOnUse" color-interpolation-filters="sRGB">
<feFlood flood-opacity="0" result="BackgroundImageFix"/>
<feColorMatrix in="SourceAlpha" type="matrix" values="0 0 0 0 0 0 0 0 0 0 0 0 0 0 0 0 0 0 127 0" result="hardAlpha"/>
<feOffset dy="4"/>
<feGaussianBlur stdDeviation="2"/>
<feComposite in2="hardAlpha" operator="out"/>
<feColorMatrix type="matrix" values="0 0 0 0 0 0 0 0 0 0 0 0 0 0 0 0 0 0 0.25 0"/>
<feBlend mode="normal" in2="BackgroundImageFix" result="effect1_dropShadow_501_142"/>
<feBlend mode="normal" in="SourceGraphic" in2="effect1_dropShadow_501_142" result="shape"/>
</filter>
</defs>
</svg>
